<svg width="20" height="16" viewBox="0 0 20 16" fill="none" xmlns="http://www.w3.org/2000/svg">
<path d="M16.9312 1.74413C15.6562 1.16913 14.2896 0.744125 12.8604 0.502458C12.8477 0.500015 12.8345 0.50159 12.8227 0.506965C12.8109 0.512339 12.8011 0.521249 12.7946 0.532458C12.6196 0.839958 12.4246 1.24079 12.2879 1.55746C10.7721 1.33099 9.23116 1.33099 7.7154 1.55746C7.56318 1.20651 7.39152 0.864312 7.20123 0.532458C7.19478 0.521111 7.18503 0.512 7.17326 0.506342C7.1615 0.500684 7.14829 0.498748 7.1354 0.500792C5.70707 0.742458 4.3404 1.16746 3.06457 1.74329C3.05359 1.7479 3.04429 1.75575 3.0379 1.76579C0.444567 5.57829 -0.266266 9.29662 0.0829005 12.9683C0.0838721 12.9773 0.0866635 12.986 0.0911046 12.9939C0.0955458 13.0017 0.101544 13.0086 0.108734 13.0141C1.62239 14.1161 3.31068 14.9556 5.1029 15.4975C5.11539 15.5013 5.12876 15.5013 5.14124 15.4974C5.15373 15.4936 5.16476 15.486 5.1729 15.4758C5.5579 14.9591 5.90123 14.4133 6.19457 13.84C6.21207 13.8066 6.1954 13.7666 6.1604 13.7533C5.62207 13.5506 5.10047 13.3059 4.6004 13.0216C4.59141 13.0165 4.58384 13.0092 4.57836 13.0004C4.57289 12.9917 4.56967 12.9817 4.56901 12.9713C4.56835 12.961 4.57026 12.9507 4.57458 12.9413C4.57889 12.9319 4.58548 12.9237 4.59373 12.9175C4.69873 12.84 4.80373 12.7591 4.90373 12.6783C4.91274 12.671 4.92358 12.6664 4.93505 12.6649C4.94653 12.6635 4.95819 12.6652 4.96873 12.67C8.24123 14.14 11.7854 14.14 15.0196 12.67C15.0301 12.6649 15.0419 12.6629 15.0536 12.6643C15.0652 12.6656 15.0762 12.6702 15.0854 12.6775C15.1854 12.7591 15.2896 12.84 15.3954 12.9175C15.4037 12.9236 15.4104 12.9316 15.4149 12.941C15.4193 12.9503 15.4214 12.9606 15.4209 12.9709C15.4204 12.9812 15.4174 12.9912 15.412 13.0001C15.4067 13.009 15.3993 13.0163 15.3904 13.0216C14.8921 13.3083 14.3737 13.5508 13.8296 13.7525C13.8212 13.7555 13.8136 13.7603 13.8072 13.7665C13.8009 13.7727 13.7959 13.7802 13.7927 13.7885C13.7894 13.7968 13.788 13.8056 13.7885 13.8145C13.789 13.8234 13.7913 13.8321 13.7954 13.84C14.0954 14.4125 14.4387 14.9575 14.8162 15.475C14.8241 15.4856 14.835 15.4935 14.8475 15.4977C14.8601 15.5019 14.8736 15.5021 14.8862 15.4983C16.6815 14.958 18.3726 14.1181 19.8879 13.0141C19.8953 13.009 19.9015 13.0023 19.9061 12.9945C19.9107 12.9867 19.9136 12.9781 19.9146 12.9691C20.3312 8.72412 19.2162 5.03579 16.9571 1.76746C16.9515 1.75684 16.9424 1.74856 16.9312 1.74413ZM6.68373 10.7325C5.69873 10.7325 4.88623 9.84162 4.88623 8.74912C4.88623 7.65579 5.6829 6.76579 6.68373 6.76579C7.69207 6.76579 8.49707 7.66329 8.48123 8.74912C8.48123 9.84246 7.68457 10.7325 6.68373 10.7325ZM13.3296 10.7325C12.3437 10.7325 11.5321 9.84162 11.5321 8.74912C11.5321 7.65579 12.3279 6.76579 13.3296 6.76579C14.3379 6.76579 15.1429 7.66329 15.1271 8.74912C15.1271 9.84246 14.3387 10.7325 13.3296 10.7325Z" fill="white"/>
</svg>
